<svg width="2342" height="170" viewBox="0 0 2342 170" fill="none" xmlns="http://www.w3.org/2000/svg">
    <path d="M1001.35 1L1102 151H157.1L2 1H1001.35Z" fill="#000AFF" />
    <path d="M1001.35 1L1102 151H157.1L2 1H1001.35Z" fill="url(#paint0_linear_44_8)"
        fill-opacity="0.75" />
    <path d="M1001.35 1L1102 151H157.1L2 1H1001.35Z" stroke="black" />
    <path d="M1340.65 1L1240 151H2184.9L2340 1H1340.65Z" fill="#FFCB05" />
    <path d="M1340.65 1L1240 151H2184.9L2340 1H1340.65Z" fill="url(#paint1_linear_44_8)"
        fill-opacity="0.75" />
    <path d="M1340.65 1L1240 151H2184.9L2340 1H1340.65Z" stroke="black" />
    <path d="M991 1L1094.21 169H1246.79L1350 1H991Z" fill="#D9D9D9" stroke="black" />
    <defs>
        <linearGradient id="paint0_linear_44_8" x1="1102" y1="1" x2="660.257" y2="307.186"
            gradientUnits="userSpaceOnUse">
            <stop />
            <stop offset="1" stop-opacity="0" />
        </linearGradient>
        <linearGradient id="paint1_linear_44_8" x1="1240" y1="1" x2="1681.74" y2="307.186"
            gradientUnits="userSpaceOnUse">
            <stop />
            <stop offset="1" stop-opacity="0" />
        </linearGradient>
    </defs>
</svg>